<?xml version="1.0" standalone="no"?>
<!DOCTYPE svg PUBLIC "-//W3C//DTD SVG 20010904//EN"
 "http://www.w3.org/TR/2001/REC-SVG-20010904/DTD/svg10.dtd">
<svg version="1.0" xmlns="http://www.w3.org/2000/svg"
 width="512.000000pt" height="512.000000pt" viewBox="0 0 512.000000 512.000000"
 preserveAspectRatio="xMidYMid meet">

<g transform="translate(0.000000,512.000000) scale(0.100000,-0.100000)"
fill="#000000" stroke="none">
<path d="M2430 4909 c-229 -7 -364 -28 -540 -83 -61 -19 -204 -73 -227 -85
-10 -5 -58 -30 -108 -54 -391 -191 -751 -533 -948 -897 -194 -359 -291 -809
-258 -1195 28 -328 145 -694 309 -964 35 -58 73 -122 84 -141 11 -19 30 -45
43 -57 12 -12 32 -37 44 -57 13 -20 26 -36 30 -36 9 0 41 34 41 43 0 12 102
102 152 134 61 39 166 73 222 73 133 -1 300 -80 438 -206 67 -61 168 -192 235
-302 41 -69 43 -52 3 28 -100 197 -247 358 -410 447 -99 54 -237 93 -326 93
-45 0 -54 30 -22 73 67 89 178 289 178 321 0 7 8 31 18 52 15 34 17 75 18 317
1 222 -2 282 -13 292 -7 8 -35 17 -61 21 -220 31 -389 85 -461 148 -83 74 -25
185 149 283 359 202 825 347 1205 374 76 5 142 13 145 16 6 6 -240 -3 -280
-11 -14 -3 -65 -10 -115 -16 -115 -13 -275 -50 -443 -100 -97 -29 -96 -31
-119 110 -5 25 -8 176 -8 335 1 265 3 298 23 376 28 111 45 150 84 195 63 71
156 91 269 58 30 -9 101 -42 159 -75 58 -32 128 -68 155 -80 43 -19 309 -100
325 -99 3 1 -31 18 -75 40 -99 49 -182 118 -172 144 6 15 14 17 40 11 76 -16
172 -25 327 -31 180 -7 301 5 534 51 156 31 167 31 205 -1 82 -69 129 -207
240 -709 11 -49 23 -117 26 -150 10 -91 22 -122 53 -133 15 -6 88 -29 162 -52
213 -66 416 -180 508 -284 38 -44 39 -55 10 -101 -29 -44 -77 -70 -152 -84
-70 -13 -349 -14 -455 -2 -41 5 -80 7 -86 5 -7 -3 -17 -27 -23 -55 -10 -41 -9
-57 4 -97 28 -82 115 -295 145 -354 46 -91 35 -144 -36 -173 -16 -7 -12 -9 22
-15 42 -6 56 -14 106 -59 37 -34 34 -61 -14 -145 -57 -98 -79 -139 -166 -306
-42 -80 -85 -156 -97 -169 -12 -13 -68 -45 -126 -72 -58 -28 -122 -59 -143
-70 -43 -24 -70 -13 -62 25 2 11 16 71 29 131 62 270 126 588 126 623 0 31 -5
41 -29 55 -16 9 -49 34 -73 54 -68 57 -286 198 -426 274 -128 70 -284 136
-383 163 -30 8 -90 26 -134 40 -96 31 -366 86 -415 85 l-35 -1 30 -8 c93 -25
180 -52 255 -80 47 -17 124 -45 173 -61 232 -77 557 -240 789 -396 154 -103
152 -100 144 -190 -3 -41 -15 -114 -26 -162 -10 -47 -40 -211 -65 -364 -25
-153 -48 -284 -52 -292 -3 -8 -3 -15 1 -15 7 0 99 36 150 60 23 10 113 48 201
85 170 70 337 143 447 194 72 34 100 38 115 19 10 -13 60 -168 94 -292 21 -75
26 -86 37 -69 12 18 46 63 65 86 11 12 26 36 34 52 9 17 42 69 74 116 148 220
296 595 324 819 4 25 10 73 16 107 12 83 13 420 0 508 -28 198 -44 291 -51
300 -5 6 -11 28 -15 50 -9 55 -62 218 -93 285 -64 140 -216 388 -316 515 -46
59 -238 249 -278 276 -20 13 -69 49 -109 79 -108 80 -139 99 -289 172 -181 88
-190 92 -327 137 -148 50 -340 91 -463 99 -52 4 -183 4 -290 1z"/>
<path d="M2119 3870 c-105 -8 -223 -28 -399 -67 -63 -14 -126 -28 -140 -30
-14 -3 -35 -12 -47 -21 -20 -16 -21 -22 -13 -106 5 -49 13 -93 19 -99 8 -8 47
0 133 26 258 76 398 92 738 84 140 -3 304 -13 363 -21 163 -23 357 -56 401
-67 21 -6 45 -8 54 -4 12 5 11 10 -11 33 -41 43 -37 86 14 138 50 51 47 70
-13 77 -24 3 -131 17 -238 32 -162 22 -243 27 -480 30 -157 2 -328 0 -381 -5z"/>
</g>
</svg>
