<svg xmlns="http://www.w3.org/2000/svg" viewBox="0 0 96 96" role="img" aria-label="Default chat icon">
  <defs>
    <linearGradient id="g" x1="0%" y1="0%" x2="100%" y2="100%">
      <stop offset="0%" stop-color="#2b7dff" />
      <stop offset="100%" stop-color="#1fb58f" />
    </linearGradient>
  </defs>
  <circle cx="48" cy="48" r="46" fill="url(#g)" />
  <path
    fill="#ffffff"
    d="M27 29h42a7 7 0 0 1 7 7v21a7 7 0 0 1-7 7H45l-14 11a2 2 0 0 1-3.2-1.6V64h-.8a7 7 0 0 1-7-7V36a7 7 0 0 1 7-7Zm6 15a4 4 0 1 0 0 8a4 4 0 0 0 0-8Zm15 0a4 4 0 1 0 0 8a4 4 0 0 0 0-8Zm15 0a4 4 0 1 0 0 8a4 4 0 0 0 0-8Z"
  />
</svg>
